<svg xmlns="http://www.w3.org/2000/svg" xmlns:xlink="http://www.w3.org/1999/xlink" version="1.0" x="0px" y="0px" viewBox="0 0 100 100" enable-background="new 0 0 100 100" xml:space="preserve"><g><path d="M49.6,58.6c-1,0-1.8,0.8-1.8,1.8V61c0,1,0.8,1.8,1.8,1.8c1,0,1.8-0.8,1.8-1.8v-0.7C51.4,59.4,50.6,58.6,49.6,58.6z"/><path d="M49.6,37.2c-2.8,0-5.3,1.5-6.6,3.8c-0.5,0.9-0.2,1.9,0.6,2.5c0.9,0.5,2,0.2,2.5-0.7c0.7-1.2,2-2,3.5-2   c2.3,0,4.2,1.8,4.2,4.1c0,2.3-1.9,4.1-4.2,4.1c-1,0-1.8,0.8-1.8,1.8c0,0,0,0,0,0.1c0,0,0,0,0,0.1v3.8c0,1,0.8,1.8,1.8,1.8   c1,0,1.8-0.8,1.8-1.8v-2.4c3.4-0.8,5.9-3.8,5.9-7.5C57.3,40.6,53.8,37.2,49.6,37.2z"/><path d="M50,23.8c-14.4,0-26.2,11.7-26.2,26.2c0,14.4,11.7,26.2,26.2,26.2c14.4,0,26.2-11.7,26.2-26.2C76.2,35.6,64.4,23.8,50,23.8   z M50,70.7c-11.4,0-20.7-9.3-20.7-20.7S38.6,29.3,50,29.3c11.4,0,20.7,9.3,20.7,20.7S61.4,70.7,50,70.7z"/></g></svg>
