<svg xmlns="http://www.w3.org/2000/svg" xmlns:xlink="http://www.w3.org/1999/xlink" version="1.1" x="0px" y="0px" viewBox="0 0 100 100" enable-background="new 0 0 100 100" xml:space="preserve"><g><path fill-rule="evenodd" clip-rule="evenodd" d="M71.407,48.724l0.016-0.031L50.075,14.126L28.458,49.114h0.049   c-2.262,3.809-3.564,7.733-3.564,12.323c0,13.464,11.191,24.267,24.998,24.267c13.805,0,24.996-10.971,24.996-24.436   C74.937,56.703,73.646,52.377,71.407,48.724 M50.2,78.922c0,0-0.92,0.085-1.035,0.069c-9.701-0.41-17.472-8.407-17.472-18.207   c0-0.357,0.079-1.058,0.079-1.058c0.133-1.276,1.199-2.275,2.51-2.275s2.377,0.999,2.509,2.275c0,0-0.02,0.822-0.02,1.058   c0,7.261,5.908,13.168,13.169,13.168c0.088,0,0.51,0.081,0.51,0.081c1.066,0.3,1.602,1.297,1.602,2.458S51.266,78.622,50.2,78.922"/><path fill-rule="evenodd" clip-rule="evenodd" d="M93.089,29.7l0.007-0.014l-9.61-15.56l-9.73,15.75h0.022   c-1.019,1.715-1.604,3.481-1.604,5.547c0,6.062,5.038,10.924,11.252,10.924c6.215,0,11.252-4.939,11.252-11   C94.677,33.292,94.097,31.345,93.089,29.7 M83.542,43.293c0,0-0.414,0.039-0.466,0.032c-4.366-0.185-7.864-3.785-7.864-8.196   c0-0.161,0.035-0.476,0.035-0.476c0.061-0.574,0.54-1.024,1.13-1.024s1.069,0.45,1.129,1.024c0,0-0.009,0.37-0.009,0.476   c0,3.268,2.66,5.928,5.928,5.928c0.04,0,0.23,0.036,0.23,0.036c0.48,0.135,0.721,0.584,0.721,1.107   C84.376,42.723,84.022,43.159,83.542,43.293"/><path fill-rule="evenodd" clip-rule="evenodd" d="M26.118,29.7l0.006-0.014l-9.609-15.56l-9.73,15.75h0.021   c-1.018,1.715-1.604,3.481-1.604,5.547c0,6.062,5.037,10.924,11.252,10.924c6.214,0,11.252-4.939,11.252-11   C27.706,33.292,27.125,31.345,26.118,29.7 M16.571,43.293c0,0-0.414,0.039-0.467,0.032c-4.366-0.185-7.863-3.785-7.863-8.196   c0-0.161,0.035-0.476,0.035-0.476c0.06-0.574,0.539-1.024,1.129-1.024s1.07,0.45,1.129,1.024c0,0-0.008,0.37-0.008,0.476   c0,3.268,2.659,5.928,5.928,5.928c0.039,0,0.229,0.036,0.229,0.036c0.48,0.135,0.722,0.584,0.722,1.107   C17.405,42.723,17.051,43.159,16.571,43.293"/></g></svg>
