<svg xmlns="http://www.w3.org/2000/svg" xmlns:xlink="http://www.w3.org/1999/xlink" version="1.1" x="0px" y="0px" viewBox="0 0 100 100" enable-background="new 0 0 100 100" xml:space="preserve"><path d="M70.252,51.597c2.928-4.099,4.62-8.977,4.829-14.103c0.02-0.459-0.155-0.906-0.481-1.232  c-0.325-0.324-0.758-0.502-1.233-0.48c-2.619,0.11-5.17,0.609-7.588,1.453c-0.144-2.58-0.666-5.118-1.565-7.571  c-0.159-0.433-0.491-0.778-0.916-0.954c-0.426-0.178-0.905-0.167-1.322,0.025c-2.352,1.088-4.508,2.516-6.439,4.249  c-1.112-2.305-2.563-4.458-4.337-6.385c-0.312-0.339-0.751-0.531-1.212-0.531c-0.46,0-0.899,0.192-1.212,0.53  c-1.77,1.921-3.218,4.07-4.328,6.37c-1.927-1.727-4.077-3.147-6.423-4.233c-0.418-0.192-0.897-0.203-1.323-0.025  c-0.425,0.176-0.757,0.522-0.915,0.955c-0.898,2.453-1.421,4.991-1.563,7.57c-2.418-0.844-4.97-1.343-7.588-1.453  c-0.463-0.023-0.908,0.154-1.233,0.48s-0.501,0.773-0.481,1.232c0.209,5.126,1.902,10.004,4.83,14.103  c-5.188,2.406-8.02,5.643-8.02,9.249c0,7.338,12.418,13.087,28.271,13.087c5.243,0,10.354-0.645,14.781-1.864  c0.682-0.188,1.168-0.79,1.207-1.496c0.076-1.362,0.463-2.401,1.152-3.09c1.294-1.293,3.798-1.519,7.01-0.648  c0.58,0.155,1.195-0.013,1.612-0.442c1.664-1.714,2.509-3.58,2.509-5.546C78.271,57.239,75.439,54.003,70.252,51.597z   M66.441,51.144c-0.021,0.022-0.05,0.036-0.07,0.061c-0.097,0.113-0.2,0.229-0.301,0.345c-0.302,0.34-0.602,0.682-0.925,1.005  c-0.481,0.481-0.983,0.935-1.501,1.368c-0.165,0.138-0.339,0.261-0.508,0.394c-0.359,0.284-0.721,0.565-1.096,0.826  c-0.211,0.146-0.429,0.28-0.644,0.419c-0.347,0.225-0.696,0.445-1.054,0.65c-0.236,0.135-0.478,0.26-0.719,0.387  c-0.351,0.184-0.705,0.361-1.065,0.527c-0.253,0.116-0.508,0.227-0.765,0.334c-0.362,0.15-0.729,0.29-1.1,0.422  c-0.262,0.094-0.524,0.186-0.79,0.27c-0.382,0.12-0.768,0.225-1.155,0.324c-0.262,0.067-0.521,0.139-0.786,0.197  c-0.417,0.092-0.839,0.163-1.262,0.231c-0.242,0.039-0.481,0.087-0.726,0.118c-0.056,0.008-0.112,0.009-0.168,0.016  c0.003-0.03,0.004-0.061,0.008-0.09c0.013-0.103,0.035-0.203,0.05-0.305c0.081-0.566,0.175-1.129,0.298-1.686  c0.008-0.037,0.02-0.074,0.027-0.111c0.877-3.87,2.753-7.478,5.473-10.429l0,0c0-0.001,0.001-0.001,0.001-0.001l0.275-0.309  c0.114-0.129,0.228-0.26,0.352-0.384c0.466-0.466,0.952-0.91,1.457-1.333c0.041-0.034,0.085-0.063,0.126-0.097  c1.5-1.237,3.161-2.284,4.968-3.117c0.009-0.004,0.016-0.012,0.024-0.016c2.13-0.979,4.406-1.644,6.771-1.935  C71.098,43.636,69.298,47.765,66.441,51.144z M56.854,36.264c1.456-1.451,3.076-2.684,4.839-3.684  c0.548,1.973,0.825,3.996,0.832,6.045c-1.582,0.809-3.081,1.779-4.476,2.901c-0.021,0.018-0.045,0.033-0.066,0.051  c-0.011-0.104-0.028-0.208-0.041-0.312c-0.034-0.292-0.07-0.585-0.114-0.876c-0.022-0.146-0.048-0.291-0.072-0.438  c-0.049-0.289-0.102-0.578-0.161-0.865c-0.027-0.134-0.056-0.268-0.085-0.4c-0.068-0.311-0.143-0.619-0.223-0.928  c-0.027-0.104-0.054-0.209-0.083-0.314c-0.098-0.359-0.204-0.717-0.317-1.072C56.875,36.336,56.866,36.299,56.854,36.264z   M49.986,30.257c1.504,1.923,2.669,4.059,3.485,6.319c0.154,0.428,0.287,0.861,0.415,1.295c0.059,0.199,0.125,0.395,0.179,0.594  c0.111,0.422,0.199,0.848,0.286,1.274c0.045,0.217,0.1,0.431,0.138,0.649c0.077,0.438,0.126,0.881,0.177,1.323  c0.023,0.206,0.06,0.41,0.078,0.618c0.056,0.648,0.086,1.301,0.086,1.957c0,0.111-0.006,0.221-0.008,0.331  c-2.1,2.388-3.729,5.118-4.83,8.062c-0.024-0.063-0.056-0.124-0.08-0.188c-0.251-0.655-0.525-1.301-0.828-1.933  c-0.013-0.026-0.026-0.053-0.039-0.079c-1.019-2.108-2.318-4.075-3.884-5.854c-0.002-0.119-0.008-0.237-0.008-0.356  c0-0.655,0.029-1.309,0.086-1.957c0.018-0.213,0.055-0.422,0.079-0.633c0.05-0.438,0.099-0.875,0.175-1.308  c0.038-0.224,0.095-0.444,0.141-0.667c0.086-0.419,0.172-0.839,0.281-1.254c0.057-0.209,0.125-0.414,0.187-0.621  c0.126-0.423,0.254-0.846,0.405-1.262C47.321,34.311,48.484,32.178,49.986,30.257z M38.306,32.58  c1.756,0.996,3.371,2.223,4.822,3.666c-0.016,0.047-0.027,0.094-0.042,0.141c-0.108,0.341-0.211,0.684-0.306,1.029  c-0.031,0.114-0.06,0.229-0.09,0.344c-0.076,0.296-0.148,0.594-0.214,0.893c-0.032,0.145-0.063,0.289-0.093,0.434  c-0.055,0.273-0.105,0.549-0.152,0.823c-0.027,0.161-0.055,0.321-0.079,0.483c-0.04,0.268-0.073,0.538-0.106,0.809  c-0.014,0.121-0.034,0.241-0.047,0.362c-0.032-0.025-0.066-0.049-0.098-0.075c-1.381-1.106-2.863-2.064-4.427-2.863  C37.48,36.576,37.759,34.553,38.306,32.58z M35.133,41.161c0.009,0.004,0.015,0.011,0.024,0.015  c1.811,0.836,3.476,1.886,4.979,3.126c0.037,0.03,0.076,0.058,0.113,0.088c0.506,0.423,0.992,0.867,1.459,1.334  c0.119,0.119,0.228,0.245,0.338,0.37c0.09,0.103,0.181,0.205,0.273,0.307c0.001,0.001,0.002,0.001,0.002,0.002  c2.715,2.939,4.588,6.531,5.473,10.389c0.012,0.058,0.029,0.113,0.043,0.171c0.117,0.531,0.205,1.07,0.284,1.61  c0.019,0.128,0.047,0.254,0.063,0.382c0.003,0.027,0.004,0.055,0.007,0.082c-0.058-0.007-0.116-0.008-0.174-0.016  c-0.234-0.03-0.465-0.076-0.697-0.113c-0.434-0.07-0.866-0.144-1.292-0.237c-0.256-0.057-0.509-0.125-0.762-0.19  c-0.396-0.103-0.791-0.21-1.182-0.332c-0.258-0.082-0.515-0.172-0.77-0.263c-0.377-0.134-0.75-0.276-1.119-0.43  c-0.252-0.105-0.502-0.213-0.75-0.327c-0.365-0.167-0.723-0.347-1.078-0.533c-0.238-0.126-0.477-0.25-0.711-0.383  c-0.358-0.205-0.707-0.427-1.055-0.651c-0.216-0.14-0.435-0.273-0.645-0.42c-0.371-0.258-0.728-0.535-1.083-0.815  c-0.174-0.137-0.354-0.265-0.523-0.406c-0.499-0.418-0.983-0.857-1.449-1.321c-0.016-0.015-0.032-0.028-0.048-0.044  c-0.319-0.318-0.614-0.655-0.912-0.99c-0.104-0.119-0.202-0.229-0.312-0.358c-0.021-0.025-0.051-0.039-0.072-0.062  c-2.855-3.379-4.655-7.508-5.195-11.916C30.728,39.518,33.004,40.182,35.133,41.161z M73.998,63.406  c-4.007-0.877-7.175-0.267-9.187,1.747c-1.034,1.032-1.696,2.381-1.978,4.019c-3.892,0.961-8.303,1.466-12.834,1.466  c-14.72,0-24.978-5.16-24.978-9.792c0-2.332,2.553-4.762,6.887-6.607c0.197,0.216,0.402,0.433,0.615,0.645  c4.645,4.646,10.827,7.349,17.41,7.608c0.022,0.001,0.044,0.002,0.065,0.002c0.008,0.001,0.015,0.001,0.02,0  c0.003,0,0.006-0.001,0.008-0.001c0.013,0,0.025,0,0.038-0.001c6.582-0.26,12.765-2.962,17.41-7.607  c0.211-0.211,0.413-0.429,0.616-0.646c4.333,1.846,6.885,4.275,6.885,6.607C74.977,61.695,74.648,62.554,73.998,63.406z"/></svg>
