<svg xmlns="http://www.w3.org/2000/svg" xmlns:xlink="http://www.w3.org/1999/xlink" version="1.1" x="0px" y="0px" viewBox="0 0 100 100" enable-background="new 0 0 100 100" xml:space="preserve"><path fill="#000000" d="M80.797,81.666c0,2.602-2.109,4.71-4.711,4.71H26.197c-2.602,0-4.711-2.108-4.711-4.71v-1.225  c0-2.602,2.109-4.711,4.711-4.711h49.889c2.602,0,4.711,2.109,4.711,4.711V81.666L80.797,81.666z"/><path fill="#000000" d="M80.797,95.288c0,2.603-2.109,4.711-4.711,4.711H26.197c-2.602,0-4.711-2.108-4.711-4.711v-1.224  c0-2.603,2.109-4.711,4.711-4.711h49.889c2.602,0,4.711,2.108,4.711,4.711V95.288L80.797,95.288z"/><path fill="#000000" d="M88.471,28.786L52.926,1.1c-0.786-0.786-1.832-1.148-2.862-1.095c-1.028-0.052-2.073,0.31-2.858,1.095  L11.661,28.786c-1.473,1.473-1.473,3.86,0,5.333s3.86,1.473,5.332,0L50.066,8.359l33.073,25.759c1.473,1.473,3.859,1.473,5.332,0  S89.943,30.258,88.471,28.786z"/><g><path fill="#000000" d="M34.267,34.91c0-2.083-1.688-3.771-3.771-3.771c-2.083,0-3.771,1.688-3.771,3.771v33.501   c0,2.082,1.688,3.771,3.771,3.771s3.771-1.688,3.771-3.771V45.052h9.251v-7.541h-9.251V34.91z"/><path fill="#000000" d="M71.793,31.139c-2.082,0-3.77,1.688-3.77,3.771v2.602H57.445v7.541h10.578v23.359   c0,2.082,1.688,3.771,3.77,3.771c2.083,0,3.771-1.688,3.771-3.771V34.91C75.564,32.827,73.876,31.139,71.793,31.139z"/><rect x="47.509" y="37.511" fill="#000000" width="0.965" height="7.541"/><rect x="52.465" y="37.511" fill="#000000" width="0.989" height="7.541"/></g><path fill="#000000" d="M45.478,47.677c-0.694,0-1.256-0.703-1.256-1.57V35.332c0-0.867,0.562-1.57,1.256-1.57  s1.256,0.703,1.256,1.57v10.775C46.733,46.974,46.171,47.677,45.478,47.677z"/><path fill="#000000" d="M50.456,52.916c-0.693,0-1.256-0.702-1.256-1.57V35.331c0-0.867,0.563-1.57,1.256-1.57  c0.694,0,1.256,0.704,1.256,1.57v16.015C51.712,52.214,51.148,52.916,50.456,52.916z"/><path fill="#000000" d="M55.433,47.677c-0.693,0-1.257-0.703-1.257-1.57V35.332c0-0.867,0.563-1.57,1.257-1.57  c0.694,0,1.257,0.703,1.257,1.57v10.775C56.689,46.974,56.127,47.677,55.433,47.677z"/><g><path fill="#000000" d="M58.15,57.618h-0.796c0-3.805-3.095-6.898-6.899-6.898c-3.804,0-6.898,3.093-6.898,6.898h-0.795   c0-4.242,3.451-7.693,7.694-7.693S58.15,53.376,58.15,57.618z"/><polygon fill="#000000" points="55.682,69.194 45.132,69.194 43.938,57.034 56.877,57.034  "/></g></svg>
